<svg version="1.1" xmlns="http://www.w3.org/2000/svg" xmlns:xlink="http://www.w3.org/1999/xlink" width="480" height="300.662">
  <rect width="100%" height="100%" style="fill:#FFFFFF;fill-opacity:1;" />
  <svg x="19.25686%" y="25%" width="480" height="300.662" viewBox="0 0 240 150.331" preserveAspectRatio="xMinYMin">
    <path id="friedolin" fill="#000000" opacity="1" width="237.665" height="150.331" x="0" y="0" d="M 176.077,57.6324C 174.128,57.5974 173.787,56.061 174.848,55.2132C 177.995,52.72 184.367,50.4849 188.969,41.9241C 191.417,37.371 195.696,41.3977 194.158,46.0169C 192.689,50.4179 189.918,54.0622 187.261,55.2903C 185.482,56.1121 180.439,57.7065 176.077,57.6324 Z M 231.923,51.9012C 229.404,57.151 223.82,68.3892 218.743,80.3011C 213.766,91.9877 205.071,100.642 197.249,103.179C 190.984,105.205 185.631,101.274 182.807,94.7732C 181.849,92.5632 183.737,91.4883 185.094,93.0757C 190.04,98.885 198.188,100.305 207.659,87.4796C 213.244,79.9097 217.933,66.9399 223.516,56.3743C 223.874,55.6566 224.426,54.7969 224.837,54.0121C 225.443,52.8581 224.356,51.3567 222.502,53.5778C 219.771,56.8437 213.105,67.8047 210.146,73.0084C 207.185,78.2132 201.836,85.6169 198.599,83.9154C 195.359,82.2118 199.646,76.2574 201.577,73.4869C 203.814,70.279 213.929,55.6236 217.121,51.8802C 220.312,48.1338 224.433,43.5907 228.005,44.5635C 230.225,45.1661 233.012,49.6321 231.923,51.9012 Z M 187.603,76.91C 189.552,71.408 196.975,57.8536 206.312,49.6321C 210.191,46.2161 212.465,47.0578 209.266,51.3938C 205.113,57.0209 198.18,67.9028 193.97,78.6135C 191.852,84.2116 183.791,87.6658 187.603,76.91 Z M 133.309,110.205C 129.888,113.71 123.954,117.105 122.67,120.726C 121.654,123.593 121.597,126.278 121.383,127.578C 121.079,129.431 119.222,129.291 118.664,127.915C 118.399,127.267 118.031,125.989 117.372,124.179C 116.782,122.551 114.733,121.67 112.775,121.67C 110.263,121.67 106.066,121.994 104.512,121.994C 103.451,121.994 102.73,120.778 104.047,119.949C 105.58,118.992 107.199,117.29 107.357,114.277C 107.458,112.386 111.996,112.193 115.679,112.193C 117.465,112.193 120.957,115.728 123.537,114.324C 126.115,112.92 128.969,111.34 130.8,107.262C 133.331,101.62 139.891,87.3055 141.738,83.2688C 145.666,74.72 140.74,72.9524 138.886,72.9524C 136.129,72.9524 135.211,74.3366 131.621,73.9803C 128.604,73.68 125.419,72.7982 123.458,72.3528C 122.064,72.0355 121.281,72.2778 120.194,72.9184C 119.436,73.3668 118.632,73.9233 117.836,74.3787C 115.455,75.7389 105.366,77.1482 109.177,74.6339C 112.985,72.1206 114.23,69.1159 116.96,68.6555C 120.665,68.0379 130.079,67.3923 138.838,68.6555C 146.932,69.8265 150.509,75.6518 146.81,83.7612C 138.227,102.55 136.737,106.7 133.309,110.205 Z M 206.095,120.267C 204.225,120.267 202.369,120.121 200.644,120.907C 198.772,121.696 197.54,122.921 195.833,123.868C 195.354,124.167 194.748,124.016 194.598,123.533C 194.43,123.097 194.43,122.309 194.748,121.994C 196.45,119.968 195.987,117.501 196.773,115.158C 197.391,112.821 199.576,111.265 201.577,109.875C 202.028,109.57 202.823,109.875 202.976,110.328C 203.458,113.595 204.991,116.098 206.553,118.733C 206.855,119.359 206.855,120.267 206.095,120.267 Z M 191.5,117.646C 191.312,117.966 190.879,118.261 190.395,118.113C 189.001,117.646 187.91,116.871 186.35,116.55C 185.284,116.408 183.895,116.098 184.02,115.317C 184.497,112.821 187.289,111.265 189.601,110.468C 190.085,110.328 190.879,110.798 191.033,111.565C 191.642,113.595 192.108,115.63 191.5,117.646 Z M 152.212,47.8325C 149.001,47.3531 146.065,44.2853 144.9,42.2294C 143.735,40.1755 142.264,36.8255 141.151,35.3862C 140.043,33.9459 137.413,29.9923 131.816,31.1563C 129.989,31.5337 128.566,31.932 124.084,31.1844C 119.6,30.4367 106.753,28.3448 104.512,28.1046C 102.272,27.8613 97.893,28.1917 94.8701,27.9204C 93.6827,27.8153 93.4696,26.7563 94.67,26.2208C 96.7456,25.298 102.318,23.9058 109.477,24.0379C 112.85,24.1029 119.482,24.6624 125.16,24.6624C 132.286,24.6624 144.786,22.1041 148.521,21.7358C 153.13,21.2803 160.32,23.7446 164.13,25.1179C 170.428,27.3889 176.882,25.7534 176.266,29.4728C 175.252,35.5303 177.063,37.9806 175.775,40.9703C 172.873,47.7264 159.913,48.9746 152.212,47.8325 Z M 171.652,79.8106C 169.829,82.3349 166.663,85.4047 163.042,87.1493C 158.336,89.4224 153.475,89.5945 150.702,89.6456C 148.997,89.6746 149.372,88.9479 150.556,86.2305C 154.698,76.6978 152.891,72.3188 150.079,69.1529C 148.313,67.1711 148.569,65.6998 156.251,67.8387C 160.842,69.1129 162.996,71.2558 168.697,74.3587C 173.471,76.953 173.269,77.5636 171.652,79.8106 Z M 118.397,103.374C 118.878,102.162 119.943,101.813 120.963,101.9C 122.362,102.027 123.681,102.89 122.748,104.633C 121.489,106.999 120.432,108.471 119.571,108.471C 118.814,108.471 118.015,108.045 117.836,107.068C 117.615,105.876 118.135,104.041 118.397,103.374 Z M 120.458,86.1434C 122.064,84.9263 127.23,84.9343 128.825,85.5158C 130.422,86.1043 129.413,89.2802 128.094,89.8027C 126.773,90.3262 117.622,88.2893 120.458,86.1434 Z M 80.0036,72.3789C 75.0021,72.0656 71.0229,70.7754 70.3087,70.4021C 69.5965,70.0277 69.8916,69.1199 70.6418,69.1299C 74.8091,69.189 80.5068,68.9948 82.3083,68.6555C 84.2509,68.2941 84.602,66.9369 83.4426,66.9609C 80.5308,67.019 77.5319,66.8749 73.1976,65.7148C 68.3481,64.4136 59.6815,60.7563 50.2687,56.9648C 32.7164,49.8974 29.6925,47.3821 27.6229,42.5988C 26.4646,39.9153 26.4416,35.2371 29.0513,33.0961C 29.6475,32.6007 30.2187,32.8809 30.1367,33.5145C 29.6535,37.2429 29.5265,39.59 32.8255,41.5468C 36.3275,43.6217 48.7502,45.3352 54.499,51.8802C 56.3645,53.891 59.3224,59.2189 66.2875,59.4851C 66.6326,59.4971 66.8107,59.0347 66.3905,58.8506C 58.4452,55.4094 57.2258,43.2844 63.9888,36.248C 70.5078,29.4628 86.6246,27.9935 91.9862,41.3046C 92.7244,43.1453 93.5287,43.8579 95.8193,44.9859C 97.879,46.0019 100.391,47.0618 101.74,47.6273C 102.846,48.0948 103.767,47.9767 104.795,47.4161C 105.823,46.8506 107.286,46.2251 109.267,45.5735C 111.836,44.7377 114.023,45.3803 115.339,47.5272C 120.186,55.4094 123.872,57.2921 126.889,61.9894C 127.245,62.5489 127.078,63.1485 126.332,63.2225C 122.947,63.5758 120.822,63.3536 119.485,62.2516C 117.729,60.7953 115.275,58.4682 109.506,55.1612C 103.739,51.8502 95.8474,49.0927 94.678,48.6513C 93.6657,48.2689 93.0445,48.4741 92.8164,49.2888C 91.232,54.937 86.8096,58.9807 81.451,60.1417C 80.5678,60.3379 80.5238,61.3228 81.386,61.6571C 83.0695,62.3107 87.3128,62.7711 89.7495,62.9172C 92.1863,63.0664 94.2179,62.9913 95.2772,61.7922C 96.3265,60.5931 96.9287,59.7474 98.4401,59.5111C 100.486,59.1879 103.462,60.8684 105.429,62.5209C 106.099,63.0884 105.882,64.0153 104.904,64.0613C 102.161,64.1844 100.845,64.3736 99.5835,66.0341C 95.6253,71.2448 86.2775,72.7692 80.0036,72.3789 Z M 62.6374,65.5466C 61.7701,65.4416 54.2979,64.2184 50.6388,62.7451C 45.9744,61.0526 40.6298,58.0658 37.977,55.6907C 37.3858,55.1632 37.83,54.4485 38.5172,54.7358C 44.2369,57.128 58.5782,62.7361 63.0305,64.6178C 63.6297,64.87 63.3546,65.6367 62.6374,65.5466 Z M 47.96,77.9629C 46.7777,78.5385 44.8551,78.0901 44.509,76.5637C 44.1639,75.0433 44.9901,73.3838 46.4336,73.1736C 47.88,72.9704 48.8923,73.8912 49.1844,75.0573C 49.4705,76.2234 49.1404,77.3964 47.96,77.9629 Z M 37.1978,25.5152C 38.5602,25.1068 39.1464,24.9387 39.8806,23.9358C 40.5168,23.058 41.275,22.003 42.3953,22.5105C 43.5357,23.0269 44.0418,25.4742 41.365,27.8994C 38.045,30.9131 34.586,31.3105 33.8488,29.1786C 33.1106,27.0436 35.3682,26.0597 37.1978,25.5152 Z M 46.2045,4.86842C 47.3128,4.25685 48.0811,5.08562 47.2428,6.45987C 45.2142,9.80193 45.1432,12.0019 44.9801,14.6693C 44.8191,17.3147 41.6121,17.638 41.281,15.1618C 40.7909,11.5075 42.4234,6.94731 46.2045,4.86842 Z M 51.291,31.6238C 52.6864,31.6538 53.4417,31.3035 54.745,30.2925C 57.6839,27.9985 60.5528,25.5052 64.8081,26.0617C 65.6313,26.1678 65.7123,27.0086 64.9281,27.451C 62.5674,28.7862 59.6435,30.9221 59.0113,32.8979C 58.6592,34.0059 58.6472,35.195 58.9323,36.6724C 59.3474,38.8363 57.3978,39.4889 55.9584,38.6412C 54.519,37.7884 51.152,34.4754 48.7502,35.223C 47.0777,35.7445 46.6016,36.7524 44.2499,36.4822C 39.1034,35.8896 39.9256,31.872 42.4224,31.1373C 44.9121,30.4047 48.1651,31.5527 51.291,31.6238 Z M 89.3294,17.9223C 89.9126,17.6551 90.6978,17.7091 91.6201,17.7391C 94.9631,17.8432 96.8096,14.8485 98.9213,14.5392C 101.033,14.2289 102.746,14.4191 104.236,14.308C 105.731,14.1949 106.435,14.0438 107.032,14.0878C 107.634,14.1258 107.923,14.9376 107.395,15.401C 105.489,17.0745 102.179,17.3268 100.162,18.4258C 98.136,19.5247 96.0754,20.6008 94.1158,20.6008C 92.0502,20.6008 89.5045,20.2274 88.6662,19.842C 87.7349,19.4107 88.045,18.5188 89.3294,17.9223 Z M 115.004,17.2257C 117.836,15.6292 122.727,14.0898 127.337,13.7815C 131.946,13.4722 135.593,13.8926 139.688,13.4062C 144.541,12.8226 144.946,14.26 143.624,15.1298C 142.363,15.9645 139.817,16.9294 136.195,17.6671C 132.715,18.3767 122.487,19.0834 119.886,19.2275C 117.502,19.3546 115.424,19.5598 114.436,18.5769C 114.199,18.3337 113.862,17.8733 115.004,17.2257 Z M 195.893,29.3037C 197.213,29.4078 203.785,31.6088 205.477,33.0591C 206.309,33.7717 207.812,36.5613 205.79,37.9475C 203.771,39.3348 201.78,39.54 199.53,38.7232C 197.278,37.9015 194.911,31.3245 194.598,30.4237C 194.286,29.5279 194.581,29.2006 195.893,29.3037 Z M 198.626,23.8597C 200.025,23.5494 204.505,23.2391 206.553,25.5923C 207.018,26.1218 207.079,27.8633 204.531,27.3579C 201.632,26.7824 199.046,26.0417 197.523,25.1229C 196.818,24.6955 197.225,24.17 198.626,23.8597 Z M 220.379,131.333C 221.799,130.563 223.689,131.498 223.802,133.186C 223.933,135.025 221.744,135.936 220.379,135.103C 219.021,134.262 218.963,132.104 220.379,131.333 Z M 185.734,139.408C 185.022,140.629 182.821,140.885 181.991,139.783C 180.956,138.418 182.295,136.137 184.204,136.262C 186.107,136.382 186.441,138.19 185.734,139.408 Z M 174.327,120.48C 172.763,121.616 170.6,121.828 170.027,120.121C 169.45,118.419 171.187,117.261 173.363,117.447C 175.541,117.636 175.9,119.345 174.327,120.48 Z M 126.903,142.68C 128.245,141.653 130.647,143.482 131.217,145.181C 131.789,146.881 130.538,147.958 128.888,147.391C 127.474,146.91 125.554,143.711 126.903,142.68 Z M 82.0382,132.68C 80.6438,132.27 80.1807,130.707 81.35,129.695C 82.5124,128.684 85.4833,127.672 86.2225,129.363C 86.9647,131.05 83.4296,133.092 82.0382,132.68 Z M 97.1657,111.128C 95.8784,111.128 92.2453,110.287 91.1339,109.709C 90.0186,109.131 89.3514,108.377 89.6175,107.078C 89.8796,105.78 91.227,105.402 92.5344,105.683C 94.4149,106.087 97.853,108.243 98.4501,109.375C 99.0443,110.508 98.2001,111.128 97.1657,111.128 Z M 7.51389,61.8833C 5.68234,62.8452 3.81879,62.59 3.30263,60.9224C 2.78848,59.2589 3.88381,58.273 5.38425,57.7265C 6.8857,57.182 8.67924,56.8727 9.41846,58.287C 10.1567,59.6983 9.34144,60.9224 7.51389,61.8833 Z M 17.842,40.9703C 16.6056,41.1675 14.9741,39.604 14.8851,38.448C 14.7991,37.2909 15.9994,37.385 17.4969,37.7494C 18.9993,38.1057 19.9826,38.429 20.0326,39.3888C 20.0847,40.3477 19.0754,40.7701 17.842,40.9703 Z M 225.338,83.6061C 227.154,77.0661 228.927,69.8045 231.138,64.0853C 233.302,58.4852 237.641,54.7198 237.641,49.2228C 237.641,46.4493 235.353,45.109 233.163,42.7649C 230.977,40.4208 229.975,38.5611 227.587,38.3579C 223.077,37.9706 219.196,43.935 216.033,45.036C 215.251,45.3082 214.738,44.7087 214.466,44.1031C 214.141,43.3835 215.846,38.5301 215.681,37.1278C 215.521,35.7285 215.014,33.3253 213.915,32.0842C 212.815,30.8451 210.566,29.5128 210.287,28.547C 210.011,27.5821 209.929,26.1848 209.506,24.6534C 209.088,23.119 207.364,21.0612 203.605,20.4566C 199.84,19.849 191.493,21.7708 185.893,20.1613C 180.291,18.5539 166.505,11.7357 164.148,10.6567C 161.789,9.57971 159.067,8.16942 157.168,7.72502C 155.264,7.28162 151.179,6.21666 148.164,6.01546C 143.317,5.68517 135.109,7.08644 128.576,7.54987C 125.633,7.72502 122.675,7.08644 119.886,7.39272C 116.307,7.72502 111.517,8.66689 109.458,9.11729C 92.0142,12.9438 83.7837,13.186 75.7783,9.93904C 71.0999,8.0383 68.6682,8.07933 67.5339,7.2556C 66.6146,6.58598 65.2232,5.16669 61.7391,2.83557C 58.2511,0.504456 54.761,-0.185181 53.1626,0C 51.5611,0.190155 50.8549,0.667587 49.8136,0.912811C 48.7753,1.16104 47.6259,1.07497 45.7954,1.47934C 43.9568,1.8857 40.5318,3.61127 38.8133,7.2556C 37.0968,10.8979 37.766,14.5883 38.4262,17.1466C 38.5852,17.7702 38.4762,18.2596 37.7259,19.0373C 37.0928,19.6919 29.0744,27.1557 27.4809,29.3227C 25.8834,31.4916 25.0822,34.2742 24.686,35.223C 24.3419,36.0448 23.5887,36.3301 22.7975,36.1619C 19.0734,35.2411 14.8031,33.4204 13.0926,35.3111C 11.3791,37.2008 12.8805,40.4348 14.8281,42.0302C 16.7727,43.6197 18.3411,42.6468 20.9269,42.5357C 23.5137,42.4276 26.0825,45.1681 26.3735,47.9947C 26.3735,48.4741 26.3735,48.4741 26.0825,48.7604C 22.1933,51.3938 15.8384,53.5057 11.4071,54.3925C 6.36655,55.3974 3.65874,55.0451 1.14699,57.146C -1.26474,59.1618 0.280726,64.0082 3.65274,64.4967C 7.27682,65.0252 10.3187,61.1617 13.7278,59.6813C 19.4595,57.2031 26.5236,54.916 31.5181,54.5196C 31.9922,54.4816 32.5134,54.992 33.7167,55.8638C 34.9191,56.7336 39.0723,59.8645 44.8721,62.9172C 45.3712,63.1815 45.7634,63.5408 45.6393,64.0082C 44.8531,67.038 44.8381,69.7294 44.4079,71.2999C 43.9768,72.8683 43.2166,73.5109 42.8185,75.3926C 42.4234,77.2733 43.2726,79.5484 45.7503,80.203C 48.2251,80.8566 50.5438,79.6435 50.8219,77.2713C 51.0999,74.9012 49.8606,73.8752 50.4768,71.2999C 51.0859,68.7225 51.4851,67.1201 52.6094,66.6116C 53.7307,66.1082 55.7073,66.6507 58.3201,68.5494C 62.0182,71.2348 67.2168,74.5658 73.9698,76.2234C 80.7358,77.8779 85.6953,77.8979 87.907,78.4584C 90.9689,79.2391 93.0935,81.333 98.2641,83.3989C 103.439,85.4638 108.517,85.9452 110.129,86.7219C 116.226,89.6506 119,90.5294 126.107,92.4571C 128.614,93.1358 125.973,98.5267 124.514,99.3004C 122.723,100.249 120.203,99.1702 117.836,100.153C 115.464,101.139 115.508,106.082 114.741,108.001C 114.122,109.553 110.568,109.548 109.487,109.548C 106.664,109.548 103.638,109.171 101.078,108.15C 98.8272,107.253 97.2418,106.313 94.4059,104.889C 90.3537,102.851 86.6606,103.686 85.3852,106.311C 84.3299,108.471 85.6903,110.422 87.7469,111.424C 89.8506,112.441 95.9114,112.178 98.4781,113.554C 99.9686,114.348 101.408,117.172 100.005,119.359C 96.9067,124.016 90.4307,124.852 86.6336,125.936C 85.1752,126.35 80.7338,127.029 79.3914,127.913C 75.7693,130.307 77.859,134.585 80.8809,135.173C 83.1426,135.617 85.1221,134.571 86.4685,133.623C 91.9452,129.753 96.8246,128.147 100.969,127.13C 105.111,126.109 109.95,127.053 112.884,129.45C 116.11,132.082 121.098,138.639 122.487,140.652C 123.775,142.515 124.779,144.894 125.633,146.494C 128.431,151.729 132.398,150.679 133.73,148.588C 134.942,146.675 134.353,144.734 133.252,143.624C 132.148,142.52 128.693,140.781 126.705,137.687C 124.714,134.599 123.136,127.618 124.714,125.415C 126.295,123.216 134.294,116.805 138.254,110.694C 142.213,104.588 146.339,94.9124 146.461,94.6371C 146.739,94.0055 147.202,93.2979 148.011,93.2298C 157.841,92.4181 166.052,91.8556 174.455,87.8269C 175.473,87.3385 176.287,87.5567 176.524,89.5975C 176.781,91.8506 177.439,95.3588 178.483,97.8961C 178.757,98.5787 178.361,98.8209 177.514,98.8209C 175.563,98.8209 173.247,98.9941 172.557,101.198C 172.024,102.922 173.11,104.578 174.455,105.13C 176.412,105.937 178.453,105.093 179.38,104.889C 181.697,104.381 183.36,105.214 184.02,105.683C 185.373,106.648 185.933,107.262 185.284,108.784C 183.977,111.868 178.825,113.788 175.919,114.678C 173.291,115.481 169.994,115.721 168.149,117.181C 165.719,119.106 166.729,123.3 170.364,123.698C 174.22,124.122 176.266,121.062 179.831,119.053C 184.126,116.63 191.262,121.896 189.771,125.728C 189.219,127.144 187.011,130.491 185.621,131.948C 184.232,133.405 181.286,134.564 180.081,135.768C 178.873,136.975 178.255,139.273 179.302,141.06C 180.984,143.929 185.02,143.831 186.745,141.832C 188.339,139.983 188.115,138.625 189.612,135.435C 191.113,132.242 196.905,125.516 202.976,125.268C 209.048,125.02 214.993,129.107 217.658,134.641C 218.828,137.079 220.924,139.028 223.986,137.815C 227.048,136.601 227.375,133.094 225.824,131.015C 224.266,128.942 221.452,128.661 218.592,126.494C 215.735,124.323 207.023,117.211 211.033,111.265C 222.817,93.7934 223.606,89.8608 225.338,83.6061 Z M 67.1268,50.7572C 66.7116,49.8514 67.5789,49.3429 68.2691,49.8393C 73.2836,53.4236 78.4231,53.4046 82.7404,50.4609C 83.5547,49.9024 84.4439,50.54 83.9698,51.4368C 80.7068,57.5694 70.0796,57.2691 67.1268,50.7572 Z M 67.937,41.764C 71.5501,36.1929 82.2403,36.4672 84.68,44.0731C 84.9371,44.8818 84.0288,45.3443 83.4426,44.7117C 79.3484,40.2626 73.6997,40.0194 69.0753,42.845C 68.2351,43.3545 67.3828,42.6138 67.937,41.764 Z M 87.4158,46.7295C 87.7049,40.707 83.4827,36.3751 77.2118,35.6825C 70.9469,34.9918 65.3792,38.6742 64.2999,45.0019C 63.2146,51.3257 67.2998,57.3842 75.0821,57.6925C 82.9105,57.9958 87.1247,52.747 87.4158,46.7295 Z" />
    <path id="legalMark" fill="#000000" opacity="0" width="9.59787" height="9.59573" x="0" y="0" d="M 235.227,137.577C 233.194,137.577 231.515,135.794 231.515,133.776C 231.515,131.692 233.194,130.002 235.227,130.002C 237.278,130.002 238.962,131.762 238.962,133.833C 238.962,135.886 237.278,137.577 235.227,137.577 Z M 235.227,128.994C 232.606,128.994 230.449,131.149 230.449,133.785C 230.449,136.481 232.534,138.59 235.227,138.59C 237.853,138.59 240.047,136.399 240.047,133.785C 240.047,131.083 237.938,128.994 235.227,128.994 Z M 234.582,133.472L 234.582,131.841L 235.171,131.841C 235.834,131.841 236.084,132.049 236.084,132.568C 236.084,132.976 235.808,133.472 234.958,133.472M 235.659,134C 236.472,133.88 237.023,133.332 237.023,132.425C 237.023,131.647 236.534,131.123 235.269,131.123L 233.682,131.123L 233.682,136.398L 234.582,136.398L 234.582,134.077L 234.657,134.077L 236.125,136.398L 237.266,136.398L 236.173,134.706C 235.959,134.392 235.754,134.09 235.659,134 Z" />
  </svg>
</svg>