<?xml version="1.0" encoding="utf-8"?>
<!-- Generator: Adobe Illustrator 17.1.0, SVG Export Plug-In . SVG Version: 6.00 Build 0)  -->
<!DOCTYPE svg PUBLIC "-//W3C//DTD SVG 1.1//EN" "http://www.w3.org/Graphics/SVG/1.1/DTD/svg11.dtd">
<svg version="1.1" id="Layer_1" xmlns="http://www.w3.org/2000/svg" xmlns:xlink="http://www.w3.org/1999/xlink" x="0px" y="0px"
	 viewBox="0 0 960 560" enable-background="new 0 0 960 560" xml:space="preserve">
<path id="legalMark" fill="#46BD00" fill-opacity="0" d="M5229.7-1577.3l-34.5,100.8l-2.8,10.3h-2.8l-2.8-10.3l-34.5-100.8h-47.6
	v135.3h28.9v-112h2.8l2.8,18.7l31.7,93.3h37.3l34.5-96.1l2.8-18.7h2.8v113.9h26.1v-134.4H5229.7z M4961.9-1554h42v112h28.9v-112
	h42.9v-23.3h-113.9L4961.9-1554L4961.9-1554z"/>
<path id="frog" d="M74.8,111.7v38H31.3v49.8h43.5V398c0,15.4,15.4,27.2,35.3,27.2s35.3-11.8,35.3-27.2V198.7h57.1v-49.8h-57.1v-38
	c0-45.3,36.2-54.3,85.1-43.5v-48C160.9,3.9,74.8,11.2,74.8,111.7z M294.9,198.7h-1.8v-49.8H236v248.2c0,15.4,15.4,27.2,35.3,27.2
	s35.3-11.8,35.3-27.2V273c0-58.9,38-74.3,85.1-74.3v-55.3C349.3,143.4,310.3,157,294.9,198.7z M789.5,143.4
	c-67.9,0-123.2,33.5-123.2,100.5c0,35.3,15.4,61.6,40.8,77.9c-1.8,0.9-3.6,2.7-5.4,3.6c-30.8,22.6-34.4,62.5-6.3,84.2
	c-13.6,11.8-33.5,34.4-33.5,65.2c0,48.9,45.3,80.6,127.7,80.6s144.9-38,144.9-97.8c0-58.9-40.8-82.4-115.9-82.4h-48.9
	c-34.4,0-31.7-23.6-19.9-33.5c0.9-0.9,0.9-0.9,1.8-1.8c11.8,2.7,25.4,3.6,38.9,3.6c67.9,0,123.2-33.5,123.2-100.5
	c0-14.5-2.7-28.1-8.2-39.9c10-2.7,20.8-4.5,31.7-4.5v-49.8c-29.9,0-49.8,1.8-70.7,11.8C845.6,149.8,818.5,143.4,789.5,143.4z
	 M752.3,424.2h66.1c27.2,0,45.3,8.2,45.3,32.6c0,32.6-28.1,48-74.3,48C718.8,505.7,723.4,447.8,752.3,424.2z M789.5,293.8
	c-29,0-52.5-10.9-52.5-50.7c0-38.9,23.6-50.7,52.5-50.7c29,0,52.5,10.9,52.5,50.7S818.5,293.8,789.5,293.8z M519.5,143.4
	c-77,0-123.2,47.1-123.2,140.4s47.1,140.4,123.2,140.4c77,0,123.2-47.1,123.2-140.4C643.6,190.5,596.5,143.4,519.5,143.4z
	 M519.5,375.3c-29,0-52.5-11.8-52.5-91.5s23.6-91.5,52.5-91.5c29,0,52.5,11.8,52.5,91.5C573,363.5,549.4,375.3,519.5,375.3z"/>
</svg>
