<?xml version="1.0" encoding="utf-8"?>
<!-- Generator: Adobe Illustrator 17.1.0, SVG Export Plug-In . SVG Version: 6.00 Build 0)  -->
<!DOCTYPE svg PUBLIC "-//W3C//DTD SVG 1.1//EN" "http://www.w3.org/Graphics/SVG/1.1/DTD/svg11.dtd">
<svg version="1.1" id="Layer_1" xmlns="http://www.w3.org/2000/svg" xmlns:xlink="http://www.w3.org/1999/xlink" x="0px" y="0px"
	 viewBox="0 0 1276 524" enable-background="new 0 0 1276 524" xml:space="preserve">
<polyline fill="none" stroke="#000000" stroke-miterlimit="10" points="43,119.5 763,119.5 773,119.5 783,119.5 793,119.5 
	803,119.5 813,119.5 823,119.5 833,119.5 843,119.5 853,119.5 863,119.5 873,119.5 883,119.5 893,119.5 903,119.5 913,119.5 
	923,119.5 933,119.5 943,119.5 953,119.5 963,119.5 973,119.5 983,119.5 993,119.5 1003,119.5 1013,119.5 1023,119.5 1033,119.5 
	1043,119.5 1053,119.5 1063,119.5 1073,119.5 1083,119.5 1093,119.5 1103,119.5 1113,119.5 1123,119.5 1133,119.5 1143,119.5 
	1153,119.5 1163,119.5 1173,119.5 1183,119.5 1193,119.5 1203,119.5 1213,119.5 1223,119.5 1233,119.5 "/>
<polyline fill="none" stroke="#000000" stroke-miterlimit="10" points="43,129.5 763,129.5 773,129.5 783,129.5 793,129.5 
	803,129.5 813,129.5 823,129.5 833,129.5 843,128.9 853,128.4 863,128.5 873,129 883,129.5 893,129.5 903,129.5 913,129.5 
	923,129.5 933,129.5 943,129.5 953,129.5 963,129.5 973,129.5 983,129.5 993,129.5 1003,129.5 1013,129.5 1023,129.5 1033,129.5 
	1043,129.5 1053,129.5 1063,129.5 1073,129.5 1083,129.5 1093,129.5 1103,129.5 1113,129.5 1123,129.5 1133,129.5 1143,129.5 
	1153,129.5 1163,129.5 1173,129.5 1183,129.5 1193,129.5 1203,129.5 1213,129.5 1223,129.5 1233,129.5 "/>
<polyline fill="none" stroke="#000000" stroke-miterlimit="10" points="43,139.5 763,139.5 773,139.5 783,139.5 793,139.5 
	803,139.5 813,139.5 823,139.1 833,136.6 843,135 853,134.7 863,134.7 873,135.1 883,138 893,139.5 903,139.5 913,139.5 923,139.5 
	933,139.5 943,139.5 953,139.5 963,139.5 973,139.5 983,139.5 993,139.5 1003,139.5 1013,139.5 1023,139.5 1033,139.5 1043,139.5 
	1053,139.5 1063,139.5 1073,139.5 1083,139.5 1093,139.5 1103,139.5 1113,139.5 1123,139.5 1133,139.5 1143,139.5 1153,139.5 
	1163,139.5 1173,139.5 1183,139.5 1193,139.5 1203,139.5 1213,139.5 1223,139.5 1233,139.5 "/>
<polyline fill="none" stroke="#000000" stroke-miterlimit="10" points="43,149.5 763,149.5 773,149.5 783,149.5 793,149.5 
	803,149.5 813,148.9 823,145.4 833,144.5 843,144.5 853,144.5 863,144.5 873,144.5 883,146.9 893,149.5 903,149.5 913,149.5 
	923,149.5 933,149.5 943,149.5 953,149.5 963,149.5 973,149.5 983,149.5 993,149.5 1003,149.5 1013,149.5 1023,149.5 1033,149.5 
	1043,149.5 1053,149.5 1063,149.5 1073,149.5 1083,149.5 1093,149.5 1103,149.5 1113,149.5 1123,149.5 1133,149.5 1143,149.5 
	1153,149.5 1163,149.5 1173,149.5 1183,149.5 1193,149.5 1203,149.5 1213,149.5 1223,149.5 1233,149.5 "/>
<polyline fill="none" stroke="#000000" stroke-miterlimit="10" points="43,159.5 763,159.5 773,159.5 783,159.5 793,159.5 
	803,159.5 813,156.1 823,154.5 833,154.5 843,154.5 853,155.9 863,157.1 873,156.5 883,158 893,159.5 903,159.5 913,159.5 
	923,159.5 933,159.5 943,159.5 953,159.5 963,159.5 973,159.5 983,159.5 993,159.5 1003,159.5 1013,159.5 1023,159.5 1033,159.5 
	1043,159.5 1053,159.5 1063,159.5 1073,159.5 1083,159.5 1093,159.5 1103,159.5 1113,159.5 1123,159.5 1133,159.5 1143,159.5 
	1153,159.5 1163,159.5 1173,159.5 1183,159.5 1193,159.5 1203,159.5 1213,159.5 1223,159.5 1233,159.5 "/>
<polyline fill="none" stroke="#000000" stroke-miterlimit="10" points="43,169.5 763,169.5 773,169.5 783,169.5 793,169.5 
	803,169.1 813,165 823,164.5 833,164.5 843,166.1 853,169.5 863,169.5 873,169.5 883,169.5 893,169.5 903,169.5 913,169.5 
	923,169.5 933,169.5 943,169.5 953,169.5 963,169.5 973,169.5 983,169.5 993,169.5 1003,169.5 1013,169.5 1023,169.5 1033,169.5 
	1043,169.5 1053,169.5 1063,169.5 1073,169.5 1083,169.5 1093,169.5 1103,169.5 1113,169.5 1123,169.5 1133,169.5 1143,169.5 
	1153,169.5 1163,169.5 1173,169.5 1183,169.5 1193,169.5 1203,169.5 1213,169.5 1223,169.5 1233,169.5 "/>
<polyline fill="none" stroke="#000000" stroke-miterlimit="10" points="43,179.5 763,179.5 773,179.5 783,179.5 793,179.5 
	803,178.8 813,174.9 823,174.5 833,174.5 843,177.9 853,179.5 863,179.5 873,179.5 883,179.5 893,179.5 903,179.5 913,179.5 
	923,179.5 933,179.5 943,179.5 953,179.5 963,179.5 973,179.5 983,179.5 993,179.5 1003,179.5 1013,179.5 1023,179.5 1033,179.5 
	1043,179.5 1053,179.5 1063,179.5 1073,179.5 1083,179.5 1093,179.5 1103,179.5 1113,179.5 1123,179.5 1133,179.5 1143,179.5 
	1153,179.5 1163,179.5 1173,179.5 1183,179.5 1193,179.5 1203,179.5 1213,179.5 1223,179.5 1233,179.5 "/>
<polyline fill="none" stroke="#000000" stroke-miterlimit="10" points="43,189.5 763,189.5 773,189.5 783,189.5 793,189.5 
	803,189.3 813,185.1 823,184.5 833,184.5 843,188.2 853,189.5 863,189.5 873,189.5 883,189.5 893,189.5 903,189.5 913,189.5 
	923,189.5 933,189.5 943,189.5 953,189.5 963,189.4 973,189.5 983,189.5 993,189.5 1003,189.5 1013,189.5 1023,189.5 1033,189.5 
	1043,189.5 1053,189.5 1063,189.5 1073,189.5 1083,189.5 1093,189.5 1103,189.5 1113,189.5 1123,189.5 1133,189.5 1143,189.4 
	1153,189.5 1163,189.5 1173,189.5 1183,189.5 1193,189.5 1203,189.5 1213,189.5 1223,189.5 1233,189.5 "/>
<polyline fill="none" stroke="#000000" stroke-miterlimit="10" points="43,199.5 763,199.5 773,199.5 783,198.6 793,196.8 
	803,196.4 813,194.7 823,194.5 833,194.5 843,196 853,196.7 863,196.9 873,199.3 883,198.5 893,196.4 903,196.6 913,199 923,199.5 
	933,197.3 943,195.6 953,196.1 963,199.3 973,199.5 983,199 993,197.2 1003,195.9 1013,195.4 1023,195.5 1033,196.1 1043,197.8 
	1053,199.5 1063,199.5 1073,199.5 1083,199.5 1093,199.5 1103,199.5 1113,198.1 1123,196.5 1133,195.6 1143,195.4 1153,195.6 
	1163,196.4 1173,198.1 1183,198.4 1193,197.1 1203,196.4 1213,198.1 1223,199.5 1233,199.5 "/>
<polyline fill="none" stroke="#000000" stroke-miterlimit="10" points="43,209.5 763,209.5 773,209.5 783,207.4 793,204.5 
	803,204.5 813,204.5 823,204.5 833,204.5 843,204.5 853,204.5 863,204.5 873,208.9 883,207.8 893,204.5 903,204.5 913,207.9 
	923,206.1 933,204.5 943,204.5 953,204.7 963,209.5 973,209 983,205.2 993,204.5 1003,204.5 1013,204.5 1023,204.5 1033,204.5 
	1043,204.5 1053,206.1 1063,209.3 1073,209.5 1083,209.5 1093,209.3 1103,206.2 1113,204.5 1123,204.5 1133,204.5 1143,204.5 
	1153,204.5 1163,204.5 1173,204.5 1183,204.6 1193,204.5 1203,204.5 1213,206.4 1223,209.5 1233,209.5 "/>
<polyline fill="none" stroke="#000000" stroke-miterlimit="10" points="43,219.5 763,219.5 773,219.5 783,218.1 793,215.5 
	803,215.3 813,214.6 823,214.5 833,214.5 843,215.1 853,215.5 863,215.6 873,219.2 883,217.8 893,214.5 903,214.7 913,214.9 
	923,214.5 933,214.5 943,215 953,216.6 963,219.1 973,215.5 983,214.5 993,214.5 1003,215 1013,216.9 1023,216.4 1033,214.6 
	1043,214.5 1053,214.5 1063,216.3 1073,219.5 1083,219.5 1093,216.3 1103,214.5 1113,214.5 1123,214.5 1133,216.1 1143,216.9 
	1153,216.1 1163,214.5 1173,214.5 1183,214.5 1193,214.5 1203,215.1 1213,217.5 1223,219.5 1233,219.5 "/>
<polyline fill="none" stroke="#000000" stroke-miterlimit="10" points="43,229.5 763,229.5 773,229.5 783,229.5 793,229.3 
	803,228.8 813,225.1 823,224.5 833,224.5 843,227.9 853,229.3 863,229.3 873,229.5 883,227.3 893,224.5 903,224.5 913,224.5 
	923,224.9 933,227.6 943,228.9 953,229.5 963,227.3 973,224.5 983,224.5 993,225 1003,228.8 1013,229.5 1023,229.5 1033,227.6 
	1043,224.5 1053,224.5 1063,224.5 1073,228.7 1083,229 1093,224.5 1103,224.5 1113,224.5 1123,226.9 1133,229.5 1143,229.5 
	1153,229.5 1163,227.1 1173,224.5 1183,224.5 1193,224.5 1203,228.1 1213,229.5 1223,229.5 1233,229.5 "/>
<polyline fill="none" stroke="#000000" stroke-miterlimit="10" points="43,239.5 763,239.5 773,239.5 783,239.5 793,239.5 
	803,239.1 813,235 823,234.5 833,234.5 843,238 853,239.5 863,239.5 873,239.5 883,237.3 893,234.5 903,234.5 913,234.6 923,237.7 
	933,239.5 943,239.5 953,239.5 963,235.7 973,234.5 983,234.5 993,236.4 1003,239.5 1013,239.5 1023,239.5 1033,239.3 1043,235.2 
	1053,234.5 1063,234.5 1073,237.5 1083,238.6 1093,234.5 1103,234.5 1113,234.7 1123,239.1 1133,239.5 1143,239.5 1153,239.5 
	1163,238.9 1173,234.9 1183,234.5 1193,234.5 1203,237.9 1213,239.5 1223,239.5 1233,239.5 "/>
<polyline fill="none" stroke="#000000" stroke-miterlimit="10" points="43,249.5 763,249.5 773,249.5 783,249.5 793,249.5 
	803,248.8 813,245 823,244.5 833,244.5 843,247.7 853,249.5 863,249.5 873,249.5 883,247.3 893,244.5 903,244.5 913,245.2 
	923,249.3 933,249.5 943,249.5 953,249.3 963,245.2 973,244.5 983,244.5 993,247.2 1003,249.5 1013,249.5 1023,249.5 1033,249.5 
	1043,245.9 1053,244.5 1063,244.5 1073,247.1 1083,248.8 1093,244.5 1103,244.5 1113,244.6 1123,248.8 1133,249.5 1143,249.5 
	1153,249.5 1163,248.7 1173,244.7 1183,244.5 1193,244.5 1203,247.6 1213,249.5 1223,249.5 1233,249.5 "/>
<polyline fill="none" stroke="#000000" stroke-miterlimit="10" points="43,259.5 763,259.5 773,259.5 783,259.5 793,259.5 
	803,258.8 813,255 823,254.5 833,254.5 843,257.7 853,259.5 863,259.5 873,259.5 883,257.3 893,254.5 903,254.5 913,255.3 
	923,259.3 933,259.5 943,259.5 953,259.1 963,255.1 973,254.5 983,254.5 993,257.4 1003,259.5 1013,259.5 1023,259.5 1033,259.5 
	1043,256.1 1053,254.5 1063,254.5 1073,256.6 1083,259.4 1093,254.7 1103,254.5 1113,254.5 1123,256.2 1133,259.3 1143,259.5 
	1153,259.3 1163,256.3 1173,254.5 1183,254.5 1193,254.5 1203,258.6 1213,259.5 1223,259.5 1233,259.5 "/>
<polyline fill="none" stroke="#000000" stroke-miterlimit="10" points="43,269.5 763,269.5 773,269.5 783,269.5 793,269.5 
	803,268.8 813,265 823,264.5 833,264.5 843,267.7 853,269.5 863,269.5 873,269.5 883,267.3 893,264.5 903,264.5 913,265.2 
	923,269.2 933,269.5 943,269.5 953,269.1 963,265.1 973,264.5 983,264.5 993,267.3 1003,269.5 1013,269.5 1023,269.5 1033,269.5 
	1043,266.1 1053,264.5 1063,264.5 1073,266.2 1083,269.5 1093,267.2 1103,264.6 1113,264.5 1123,264.5 1133,265.2 1143,266 
	1153,265.3 1163,264.5 1173,264.5 1183,264.5 1193,266.6 1203,269.5 1213,269.5 1223,269.5 1233,269.5 "/>
<polyline fill="none" stroke="#000000" stroke-miterlimit="10" points="43,279.5 763,279.5 773,279.5 783,279.5 793,279.5 
	803,278.8 813,275 823,274.5 833,274.5 843,277.7 853,279.5 863,279.5 873,279.5 883,277.3 893,274.5 903,274.5 913,275.2 
	923,279.2 933,279.5 943,279.5 953,279.4 963,275.3 973,274.5 983,274.5 993,277 1003,279.5 1013,279.5 1023,279.5 1033,279.5 
	1043,275.8 1053,274.5 1063,274.5 1073,276.6 1083,279.5 1093,279.5 1103,275.8 1113,274.5 1123,274.5 1133,274.5 1143,274.5 
	1153,274.5 1163,274.5 1173,274.6 1183,276.6 1193,279.4 1203,279.5 1213,279.5 1223,279.5 1233,279.5 "/>
<polyline fill="none" stroke="#000000" stroke-miterlimit="10" points="43,289.5 763,289.5 773,289.5 783,289.5 793,289.5 
	803,288.8 813,285 823,284.5 833,284.5 843,287.7 853,289.5 863,289.5 873,289.5 883,287.3 893,284.5 903,284.5 913,285.2 
	923,289.2 933,289.5 943,289.5 953,289.5 963,286.1 973,284.5 983,284.5 993,285.8 1003,289.5 1013,289.5 1023,289.5 1033,289 
	1043,284.9 1053,284.5 1063,284.5 1073,287.7 1083,289.5 1093,287.7 1103,284.9 1113,284.5 1123,286.2 1133,287.2 1143,286.8 
	1153,286.9 1163,287.7 1173,288.9 1183,289.5 1193,289.5 1203,289.5 1213,289.5 1223,289.5 1233,289.5 "/>
<polyline fill="none" stroke="#000000" stroke-miterlimit="10" points="43,299.5 763,299.5 773,299.5 783,299.5 793,299.5 
	803,298.9 813,295 823,294.5 833,294.5 843,297.7 853,299.5 863,299.5 873,299.5 883,297.3 893,294.5 903,294.5 913,295.2 
	923,299.2 933,299.5 943,299.5 953,299.5 963,298.1 973,294.5 983,294.5 993,294.5 1003,297.2 1013,299.1 1023,298.9 1033,296.4 
	1043,294.5 1053,294.5 1063,295 1073,299.2 1083,299.5 1093,295.3 1103,294.5 1113,294.5 1123,297.2 1133,299.3 1143,299.2 
	1153,299.1 1163,299.4 1173,299.5 1183,299.5 1193,299.5 1203,299.5 1213,299.5 1223,299.5 1233,299.5 "/>
<polyline fill="none" stroke="#000000" stroke-miterlimit="10" points="43,309.5 763,309.5 773,309.5 783,309.5 793,309.5 
	803,308.7 813,304.8 823,304.5 833,304.5 843,307.6 853,309.5 863,309.5 873,309.5 883,307.1 893,304.5 903,304.5 913,305 
	923,309.1 933,309.5 943,309.5 953,309.5 963,309.5 973,306.5 983,304.5 993,304.5 1003,304.5 1013,305.2 1023,304.9 1033,304.5 
	1043,304.5 1053,304.5 1063,307.7 1073,309.5 1083,309.4 1093,305.8 1103,304.5 1113,304.5 1123,304.5 1133,305.2 1143,305.2 
	1153,305.1 1163,305.1 1173,305.5 1183,306.3 1193,307.9 1203,309.5 1213,309.5 1223,309.5 1233,309.5 "/>
<polyline fill="none" stroke="#000000" stroke-miterlimit="10" points="43,319.5 763,319.5 773,319.5 783,319.5 793,319.5 
	803,319.1 813,315.2 823,314.5 833,314.5 843,318.1 853,319.5 863,319.5 873,319.5 883,317.6 893,314.5 903,314.5 913,315.6 
	923,319.4 933,319.5 943,319.5 953,319.5 963,319.5 973,319.5 983,316.9 993,314.7 1003,314.5 1013,314.5 1023,314.5 1033,314.5 
	1043,315.1 1053,317.8 1063,319.5 1073,319.5 1083,319.5 1093,318.2 1103,314.5 1113,314.5 1123,314.5 1133,314.5 1143,314.5 
	1153,314.5 1163,314.5 1173,314.5 1183,314.5 1193,314.5 1203,317.1 1213,319.5 1223,319.5 1233,319.5 "/>
<polyline fill="none" stroke="#000000" stroke-miterlimit="10" points="43,329.5 763,329.5 773,329.5 783,329.5 793,329.5 
	803,329.5 813,328.4 823,326.9 833,327.8 843,329.5 853,329.5 863,329.5 873,329.5 883,329.4 893,327.8 903,327.1 913,328.8 
	923,329.5 933,329.5 943,329.5 953,329.5 963,329.5 973,329.5 983,329.5 993,328.8 1003,327.7 1013,327.1 1023,327.2 1033,327.9 
	1043,329.2 1053,329.5 1063,329.5 1073,329.5 1083,329.5 1093,326.6 1103,324.5 1113,324.5 1123,325.6 1133,327.2 1143,327.1 
	1153,327.2 1163,327 1173,325.3 1183,324.5 1193,324.5 1203,324.5 1213,328.6 1223,329.5 1233,329.5 "/>
<polyline fill="none" stroke="#000000" stroke-miterlimit="10" points="43,339.5 763,339.5 773,339.5 783,339.5 793,339.5 
	803,339.5 813,339.5 823,339.5 833,339.5 843,339.5 853,339.5 863,339.5 873,339.5 883,339.5 893,339.5 903,339.5 913,339.5 
	923,339.5 933,339.5 943,339.5 953,339.5 963,339.5 973,339.5 983,339.5 993,339.5 1003,339.5 1013,339.5 1023,339.5 1033,339.5 
	1043,339.5 1053,339.5 1063,339.5 1073,339.5 1083,337.9 1093,334.5 1103,334.5 1113,334.9 1123,339 1133,339.5 1143,339.5 
	1153,339.5 1163,339.5 1173,338.9 1183,334.7 1193,334.5 1203,334.5 1213,337.4 1223,339.5 1233,339.5 "/>
<polyline fill="none" stroke="#000000" stroke-miterlimit="10" points="43,349.5 763,349.5 773,349.5 783,349.5 793,349.5 
	803,349.5 813,349.5 823,349.5 833,349.5 843,349.5 853,349.5 863,349.5 873,349.5 883,349.5 893,349.5 903,349.5 913,349.5 
	923,349.5 933,349.5 943,349.5 953,349.5 963,349.5 973,349.5 983,349.5 993,349.5 1003,349.5 1013,349.5 1023,349.5 1033,349.5 
	1043,349.5 1053,349.5 1063,349.5 1073,349.5 1083,346.4 1093,344.5 1103,344.5 1113,345.3 1123,349.5 1133,349.5 1143,349.5 
	1153,349.5 1163,349.5 1173,348.7 1183,344.7 1193,344.5 1203,344.5 1213,347.5 1223,349.5 1233,349.5 "/>
<polyline fill="none" stroke="#000000" stroke-miterlimit="10" points="43,359.5 763,359.5 773,359.5 783,359.5 793,359.5 
	803,359.5 813,359.5 823,359.5 833,359.5 843,359.5 853,359.5 863,359.5 873,359.5 883,359.5 893,359.5 903,359.5 913,359.5 
	923,359.5 933,359.5 943,359.5 953,359.5 963,359.5 973,359.5 983,359.5 993,359.5 1003,359.5 1013,359.5 1023,359.5 1033,359.5 
	1043,359.5 1053,359.5 1063,359.5 1073,359.5 1083,356.9 1093,354.5 1103,354.5 1113,354.5 1123,357 1133,359 1143,359.3 
	1153,359.1 1163,358.4 1173,355.6 1183,354.5 1193,354.5 1203,354.7 1213,358.9 1223,359.5 1233,359.5 "/>
<polyline fill="none" stroke="#000000" stroke-miterlimit="10" points="43,369.5 763,369.5 773,369.5 783,369.5 793,369.5 
	803,369.5 813,369.5 823,369.5 833,369.5 843,369.5 853,369.5 863,369.5 873,369.5 883,369.5 893,369.5 903,369.5 913,369.5 
	923,369.5 933,369.5 943,369.5 953,369.5 963,369.5 973,369.5 983,369.5 993,369.5 1003,369.5 1013,369.5 1023,369.5 1033,369.5 
	1043,369.5 1053,369.5 1063,369.5 1073,369.5 1083,368.9 1093,365 1103,364.5 1113,364.5 1123,364.5 1133,365 1143,365.6 
	1153,365.3 1163,364.5 1173,364.5 1183,364.5 1193,364.5 1203,367.8 1213,369.5 1223,369.5 1233,369.5 "/>
<polyline fill="none" stroke="#000000" stroke-miterlimit="10" points="43,379.5 763,379.5 773,379.5 783,379.5 793,379.5 
	803,379.5 813,379.5 823,379.5 833,379.5 843,379.5 853,379.5 863,379.5 873,379.5 883,379.5 893,379.5 903,379.5 913,379.5 
	923,379.5 933,379.5 943,379.5 953,379.5 963,379.5 973,379.5 983,379.5 993,379.5 1003,379.5 1013,379.5 1023,379.5 1033,379.5 
	1043,379.5 1053,379.5 1063,379.5 1073,379.5 1083,379.5 1093,378.7 1103,375.7 1113,374.5 1123,374.5 1133,374.5 1143,374.5 
	1153,374.5 1163,374.5 1173,374.6 1183,375.6 1193,378.1 1203,379.5 1213,379.5 1223,379.5 1233,379.5 "/>
<polyline fill="none" stroke="#000000" stroke-miterlimit="10" points="43,389.5 763,389.5 773,389.5 783,389.5 793,389.5 
	803,389.5 813,389.5 823,389.5 833,389.5 843,389.5 853,389.5 863,389.5 873,389.5 883,389.5 893,389.5 903,389.5 913,389.5 
	923,389.5 933,389.5 943,389.5 953,389.5 963,389.5 973,389.5 983,389.5 993,389.5 1003,389.5 1013,389.5 1023,389.5 1033,389.5 
	1043,389.5 1053,389.5 1063,389.5 1073,389.5 1083,389.5 1093,389.5 1103,389.4 1113,388.2 1123,387.1 1133,386.6 1143,386.6 
	1153,386.7 1163,387.2 1173,388.3 1183,389.4 1193,389.5 1203,389.5 1213,389.5 1223,389.5 1233,389.5 "/>
<polyline fill="none" stroke="#000000" stroke-miterlimit="10" points="43,399.5 763,399.5 773,399.5 783,399.5 793,399.5 
	803,399.5 813,399.5 823,399.5 833,399.5 843,399.5 853,399.5 863,399.5 873,399.5 883,399.5 893,399.5 903,399.5 913,399.5 
	923,399.5 933,399.5 943,399.5 953,399.5 963,399.5 973,399.5 983,399.5 993,399.5 1003,399.5 1013,399.5 1023,399.5 1033,399.5 
	1043,399.5 1053,399.5 1063,399.5 1073,399.5 1083,399.5 1093,399.5 1103,399.5 1113,399.5 1123,399.5 1133,399.5 1143,399.5 
	1153,399.5 1163,399.5 1173,399.5 1183,399.5 1193,399.5 1203,399.5 1213,399.5 1223,399.5 1233,399.5 "/>
<polyline fill="none" stroke="#000000" stroke-miterlimit="10" points="43,409.5 763,409.5 773,409.5 783,409.5 793,409.5 
	803,409.5 813,409.5 823,409.5 833,409.5 843,409.5 853,409.5 863,409.5 873,409.5 883,409.5 893,409.5 903,409.5 913,409.5 
	923,409.5 933,409.5 943,409.5 953,409.5 963,409.5 973,409.5 983,409.5 993,409.5 1003,409.5 1013,409.5 1023,409.5 1033,409.5 
	1043,409.5 1053,409.5 1063,409.5 1073,409.5 1083,409.5 1093,409.5 1103,409.5 1113,409.5 1123,409.5 1133,409.5 1143,409.5 
	1153,409.5 1163,409.5 1173,409.5 1183,409.5 1193,409.5 1203,409.5 1213,409.5 1223,409.5 1233,409.5 "/>
</svg>
